# Blender 3.6.2
# www.blender.org
mtllib ammo_pickup.mtl
o Bullet
v 0.000000 -0.193473 -0.283216
v 0.000000 0.237074 -0.048236
v 0.081749 -0.203967 -0.263989
v 0.081749 0.226581 -0.029008
v 0.141594 -0.232637 -0.211458
v 0.141594 0.197911 0.023522
v 0.163499 -0.271800 -0.139700
v 0.163499 0.158748 0.095280
v 0.141594 -0.310964 -0.067942
v 0.081749 -0.339633 -0.015412
v 0.000000 -0.350127 0.003816
v 0.000000 0.080421 0.238796
v -0.081749 -0.339633 -0.015412
v -0.081749 0.090915 0.219568
v -0.141594 -0.310964 -0.067942
v -0.141594 0.119584 0.167038
v -0.163499 -0.271800 -0.139700
v -0.163499 0.158748 0.095280
v -0.141594 -0.232637 -0.211458
v -0.141594 0.197911 0.023522
v -0.081750 -0.203967 -0.263989
v -0.081750 0.226580 -0.029008
v 0.000000 0.286033 -0.007337
v 0.031284 0.317298 0.120081
v 0.057806 0.308194 0.062780
v 0.075527 0.276338 0.010427
v 0.054186 0.306326 0.140184
v 0.100122 0.287921 0.099925
v 0.130816 0.249851 0.058959
v 0.062568 0.291339 0.167645
v 0.115611 0.260229 0.150665
v 0.151053 0.213669 0.125254
v 0.054186 0.276352 0.195105
v 0.100122 0.232536 0.201406
v 0.130816 0.177486 0.191550
v 0.141594 0.119584 0.167038
v 0.031284 0.265380 0.215208
v 0.057806 0.212264 0.238551
v 0.075527 0.150999 0.240082
v 0.081749 0.090915 0.219568
v 0.000000 0.261365 0.222566
v 0.000000 0.204843 0.252146
v 0.000000 0.141304 0.257846
v -0.031284 0.265380 0.215208
v -0.057806 0.212264 0.238551
v -0.075527 0.150999 0.240082
v -0.054186 0.276352 0.195105
v -0.100122 0.232536 0.201406
v -0.130816 0.177486 0.191550
v -0.062568 0.291339 0.167645
v -0.115611 0.260229 0.150665
v -0.151053 0.213669 0.125254
v -0.054186 0.306326 0.140184
v -0.100122 0.287921 0.099925
v -0.130816 0.249851 0.058959
v -0.031284 0.317297 0.120081
v -0.057806 0.308194 0.062780
v -0.075527 0.276338 0.010427
v 0.000000 0.302263 0.173607
v 0.000000 0.321313 0.112723
v 0.000000 0.315614 0.049184
vn -0.0000 -0.2107 -0.9776
vn -0.0000 0.8383 -0.5452
vn 0.4401 0.7818 -0.4417
vn 0.3786 -0.2593 -0.8885
vn 0.7623 0.6275 -0.1589
vn 0.6557 -0.3920 -0.6452
vn 0.8802 0.4166 0.2274
vn 0.7572 -0.5734 -0.3129
vn 0.7623 0.2058 0.6137
vn 0.6557 -0.7548 0.0194
vn 0.4401 0.0515 0.8965
vn 0.3786 -0.8875 0.2626
vn -0.0000 -0.0050 1.0000
vn -0.0000 -0.9361 0.3517
vn -0.4401 0.0515 0.8965
vn -0.3786 -0.8875 0.2626
vn -0.7623 0.2058 0.6137
vn -0.6557 -0.7548 0.0194
vn -0.8802 0.4166 0.2274
vn -0.7572 -0.5734 -0.3129
vn -0.7623 0.6275 -0.1589
vn -0.6557 -0.3920 -0.6452
vn -0.4401 0.7818 -0.4417
vn -0.3786 -0.2593 -0.8885
vn -0.0000 0.7710 -0.6368
vn 0.4642 0.7115 -0.5276
vn -0.0000 0.9530 -0.3031
vn -0.0000 0.9970 0.0774
vn 0.2049 0.9707 0.1256
vn 0.3613 0.9066 -0.2181
vn -0.0000 0.8778 0.4791
vn 0.6258 0.7799 0.0141
vn 0.8040 0.5487 -0.2293
vn 0.3548 0.8989 0.2572
vn 0.7226 0.6068 0.3312
vn 0.9283 0.3263 0.1781
vn 0.4097 0.8007 0.4370
vn 0.8040 0.1039 0.5855
vn 0.3548 0.7026 0.6168
vn 0.6258 0.4337 0.6483
vn 0.4642 -0.0588 0.8838
vn 0.2049 0.6307 0.7485
vn 0.3613 0.3070 0.8805
vn -0.0000 0.2607 0.9654
vn -0.0000 -0.1184 0.9930
vn -0.0000 0.6045 0.7966
vn -0.3613 0.3070 0.8805
vn -0.4642 -0.0588 0.8838
vn -0.2049 0.6307 0.7485
vn -0.8040 0.1039 0.5855
vn -0.3548 0.7026 0.6168
vn -0.6258 0.4337 0.6483
vn -0.4097 0.8007 0.4370
vn -0.7226 0.6068 0.3312
vn -0.9283 0.3263 0.1781
vn -0.6258 0.7799 0.0141
vn -0.8040 0.5487 -0.2293
vn -0.3548 0.8989 0.2572
vn -0.2049 0.9707 0.1256
vn -0.4642 0.7115 -0.5276
vn -0.3613 0.9066 -0.2181
vt 1.000000 0.500000
vt 1.000000 1.000000
vt 0.916667 1.000000
vt 0.916667 0.500000
vt 0.833333 1.000000
vt 0.833333 0.500000
vt 0.750000 1.000000
vt 0.750000 0.500000
vt 0.666667 1.000000
vt 0.666667 0.500000
vt 0.583333 1.000000
vt 0.583333 0.500000
vt 0.500000 1.000000
vt 0.500000 0.500000
vt 0.416667 1.000000
vt 0.416667 0.500000
vt 0.333333 1.000000
vt 0.333333 0.500000
vt 0.250000 1.000000
vt 0.250000 0.500000
vt 0.166667 1.000000
vt 0.166667 0.500000
vt 0.370000 0.457846
vt 0.250000 0.490000
vt 0.130000 0.457846
vt 0.042154 0.370000
vt 0.010000 0.250000
vt 0.042154 0.130000
vt 0.130000 0.042154
vt 0.250000 0.010000
vt 0.370000 0.042154
vt 0.457846 0.130000
vt 0.490000 0.250000
vt 0.457846 0.370000
vt 0.083333 1.000000
vt 0.083333 0.500000
vt 0.000000 1.000000
vt 0.000000 0.500000
vt 0.750000 0.490000
vt 0.870000 0.457846
vt 0.957846 0.370000
vt 0.990000 0.250000
vt 0.957846 0.130000
vt 0.870000 0.042154
vt 0.750000 0.010000
vt 0.630000 0.042154
vt 0.542154 0.130000
vt 0.510000 0.250000
vt 0.542154 0.370000
vt 0.630000 0.457846
vt 0.750000 0.500000
vt 0.750000 0.625000
vt 0.666667 0.625000
vt 0.666667 0.500000
vt 0.750000 0.750000
vt 0.750000 0.875000
vt 0.666667 0.875000
vt 0.666667 0.750000
vt 0.708333 1.000000
vt 0.583333 0.750000
vt 0.583333 0.625000
vt 0.625000 1.000000
vt 0.583333 0.875000
vt 0.583333 0.500000
vt 0.500000 0.750000
vt 0.500000 0.625000
vt 0.541667 1.000000
vt 0.500000 0.875000
vt 0.500000 0.500000
vt 0.416667 0.625000
vt 0.416667 0.500000
vt 0.416667 0.875000
vt 0.416667 0.750000
vt 0.458333 1.000000
vt 0.333333 0.625000
vt 0.333333 0.500000
vt 0.333333 0.875000
vt 0.333333 0.750000
vt 0.375000 1.000000
vt 0.250000 0.750000
vt 0.250000 0.625000
vt 0.291667 1.000000
vt 0.250000 0.875000
vt 0.250000 0.500000
vt 0.166667 0.750000
vt 0.166667 0.625000
vt 0.208333 1.000000
vt 0.166667 0.875000
vt 0.166667 0.500000
vt 0.083333 0.625000
vt 0.083333 0.500000
vt 0.083333 0.875000
vt 0.083333 0.750000
vt 0.125000 1.000000
vt 0.000000 0.875000
vt 0.000000 0.750000
vt 0.000000 0.625000
vt 0.041667 1.000000
vt 0.000000 0.500000
vt 1.000000 0.625000
vt 1.000000 0.750000
vt 0.916667 0.750000
vt 0.916667 0.625000
vt 1.000000 0.875000
vt 0.958333 1.000000
vt 0.916667 0.875000
vt 0.916667 0.500000
vt 0.875000 1.000000
vt 0.833333 0.875000
vt 0.833333 0.625000
vt 0.833333 0.500000
vt 0.833333 0.750000
vt 0.791667 1.000000
s 1
usemtl Material
f 1/1/1 2/2/2 4/3/3 3/4/4
f 3/4/4 4/3/3 6/5/5 5/6/6
f 5/6/6 6/5/5 8/7/7 7/8/8
f 7/8/8 8/7/7 36/9/9 9/10/10
f 9/10/10 36/9/9 40/11/11 10/12/12
f 10/12/12 40/11/11 12/13/13 11/14/14
f 11/14/14 12/13/13 14/15/15 13/16/16
f 13/16/16 14/15/15 16/17/17 15/18/18
f 15/18/18 16/17/17 18/19/19 17/20/20
f 17/20/20 18/19/19 20/21/21 19/22/22
f 4/23/3 2/24/2 22/25/23 20/26/21 18/27/19 16/28/17 14/29/15 12/30/13 40/31/11 36/32/9 8/33/7 6/34/5
f 19/22/22 20/21/21 22/35/23 21/36/24
f 21/36/24 22/35/23 2/37/2 1/38/1
f 1/39/1 3/40/4 5/41/6 7/42/8 9/43/10 10/44/12 11/45/14 13/46/16 15/47/18 17/48/20 19/49/22 21/50/24
f 2/51/2 23/52/25 26/53/26 4/54/3
f 61/55/27 60/56/28 24/57/29 25/58/30
f 23/52/25 61/55/27 25/58/30 26/53/26
f 60/56/28 59/59/31 24/57/29
f 26/53/26 25/58/30 28/60/32 29/61/33
f 24/57/29 59/62/31 27/63/34
f 4/54/3 26/53/26 29/61/33 6/64/5
f 25/58/30 24/57/29 27/63/34 28/60/32
f 29/61/33 28/60/32 31/65/35 32/66/36
f 27/63/34 59/67/31 30/68/37
f 6/64/5 29/61/33 32/66/36 8/69/7
f 28/60/32 27/63/34 30/68/37 31/65/35
f 8/69/7 32/66/36 35/70/38 36/71/9
f 31/65/35 30/68/37 33/72/39 34/73/40
f 32/66/36 31/65/35 34/73/40 35/70/38
f 30/68/37 59/74/31 33/72/39
f 36/71/9 35/70/38 39/75/41 40/76/11
f 34/73/40 33/72/39 37/77/42 38/78/43
f 35/70/38 34/73/40 38/78/43 39/75/41
f 33/72/39 59/79/31 37/77/42
f 39/75/41 38/78/43 42/80/44 43/81/45
f 37/77/42 59/82/31 41/83/46
f 40/76/11 39/75/41 43/81/45 12/84/13
f 38/78/43 37/77/42 41/83/46 42/80/44
f 43/81/45 42/80/44 45/85/47 46/86/48
f 41/83/46 59/87/31 44/88/49
f 12/84/13 43/81/45 46/86/48 14/89/15
f 42/80/44 41/83/46 44/88/49 45/85/47
f 14/89/15 46/86/48 49/90/50 16/91/17
f 45/85/47 44/88/49 47/92/51 48/93/52
f 46/86/48 45/85/47 48/93/52 49/90/50
f 44/88/49 59/94/31 47/92/51
f 48/93/52 47/92/51 50/95/53 51/96/54
f 49/90/50 48/93/52 51/96/54 52/97/55
f 47/92/51 59/98/31 50/95/53
f 16/91/17 49/90/50 52/97/55 18/99/19
f 52/100/55 51/101/54 54/102/56 55/103/57
f 50/104/53 59/105/31 53/106/58
f 18/1/19 52/100/55 55/103/57 20/107/21
f 51/101/54 50/104/53 53/106/58 54/102/56
f 53/106/58 59/108/31 56/109/59
f 20/107/21 55/103/57 58/110/60 22/111/23
f 54/102/56 53/106/58 56/109/59 57/112/61
f 55/103/57 54/102/56 57/112/61 58/110/60
f 22/111/23 58/110/60 23/52/25 2/51/2
f 57/112/61 56/109/59 60/56/28 61/55/27
f 58/110/60 57/112/61 61/55/27 23/52/25
f 56/109/59 59/113/31 60/56/28
