# Blender 3.6.2
# www.blender.org
mtllib health_pickup.mtl
o health
v 0.110000 0.110000 -0.110000
v 0.110000 -0.110000 -0.110000
v 0.110000 0.110000 0.110000
v 0.110000 -0.110000 0.110000
v -0.110000 0.110000 -0.110000
v -0.110000 -0.110000 -0.110000
v -0.110000 0.110000 0.110000
v -0.110000 -0.110000 0.110000
v 0.110000 0.310000 0.110000
v -0.110000 0.310000 0.110000
v 0.110000 0.310000 -0.110000
v -0.110000 0.310000 -0.110000
v -0.110000 -0.310000 -0.110000
v -0.110000 -0.310000 0.110000
v 0.110000 -0.310000 -0.110000
v 0.110000 -0.310000 0.110000
v 0.110000 -0.110000 -0.310000
v -0.110000 -0.110000 -0.310000
v 0.110000 0.110000 -0.310000
v -0.110000 0.110000 -0.310000
v -0.110000 -0.110000 0.310000
v -0.110000 0.110000 0.310000
v 0.110000 0.110000 0.310000
v 0.110000 -0.110000 0.310000
vn -0.0000 -0.0000 -1.0000
vn -0.0000 -1.0000 -0.0000
vn -1.0000 -0.0000 -0.0000
vn -0.0000 -0.0000 1.0000
vn 1.0000 -0.0000 -0.0000
vn -0.0000 1.0000 -0.0000
vt 0.875000 0.750000
vt 0.875000 0.500000
vt 0.375000 0.500000
vt 0.375000 0.250000
vt 0.625000 0.500000
vt 0.625000 0.750000
vt 0.375000 0.750000
vt 0.125000 0.500000
vt 0.125000 0.750000
vt 0.375000 0.000000
vt 0.625000 0.000000
vt 0.625000 0.250000
vt 0.625000 1.000000
vt 0.375000 1.000000
s 0
usemtl Material
f 1/1/1 5/2/1 12/2/1 11/1/1
f 8/3/2 4/4/2 24/4/2 21/3/2
f 8/3/3 7/5/3 5/6/3 6/7/3
f 4/4/4 8/3/4 14/3/4 16/4/4
f 2/8/5 1/3/5 3/7/5 4/9/5
f 5/2/6 1/1/6 19/1/6 20/2/6
f 11/10/6 12/11/6 10/12/6 9/4/6
f 7/5/4 3/12/4 9/12/4 10/5/4
f 5/6/3 7/5/3 10/5/3 12/6/3
f 3/7/5 1/3/5 11/3/5 9/7/5
f 13/7/2 15/6/2 16/13/2 14/14/2
f 8/3/3 6/7/3 13/7/3 14/3/3
f 2/8/5 4/9/5 16/9/5 15/8/5
f 6/5/1 2/6/1 15/6/1 13/5/1
f 18/5/1 20/2/1 19/1/1 17/6/1
f 1/3/5 2/8/5 17/8/5 19/3/5
f 6/7/3 5/6/3 20/6/3 18/7/3
f 2/6/2 6/5/2 18/5/2 17/6/2
f 24/4/4 23/12/4 22/5/4 21/3/4
f 3/12/6 7/5/6 22/5/6 23/12/6
f 4/9/5 3/7/5 23/7/5 24/9/5
f 7/5/3 8/3/3 21/3/3 22/5/3
